<?xml version="1.0" standalone="no"?>
<!DOCTYPE svg PUBLIC "-//W3C//DTD SVG 20010904//EN"
 "http://www.w3.org/TR/2001/REC-SVG-20010904/DTD/svg10.dtd">
<svg version="1.0" xmlns="http://www.w3.org/2000/svg"
 width="70.000000pt" height="70.000000pt" viewBox="0 0 70.000000 70.000000"
 preserveAspectRatio="xMidYMid meet">
<metadata>
Created by potrace 1.14, written by Peter Selinger 2001-2017
</metadata>
<g transform="translate(0.000000,70.000000) scale(0.100000,-0.100000)"
fill="#000000" stroke="none">
<path d="M20 602 c0 -5 10 -18 23 -30 22 -21 32 -22 193 -22 l169 0 44 30 44
30 -236 0 c-131 0 -237 -4 -237 -8z"/>
<path d="M489 590 c-113 -60 -215 -284 -189 -416 19 -97 52 -130 124 -122 54
6 96 35 147 102 21 28 43 56 48 62 25 30 39 77 50 159 9 76 8 98 -6 148 -12
45 -22 61 -44 72 -38 20 -87 18 -130 -5z m72 -146 c38 -46 -5 -188 -71 -231
-40 -28 -42 -28 -70 -5 -46 38 -17 181 47 232 31 24 76 26 94 4z"/>
<path d="M104 511 c27 -28 30 -29 136 -30 100 -2 110 0 129 20 12 13 21 26 21
31 0 4 -71 8 -157 8 l-157 0 28 -29z"/>
<path d="M172 441 c15 -25 41 -31 97 -26 43 4 71 19 71 36 0 5 -41 9 -90 9
-87 0 -90 -1 -78 -19z"/>
<path d="M230 382 c0 -15 24 -32 47 -32 16 0 23 6 23 20 0 16 -7 20 -35 20
-19 0 -35 -4 -35 -8z"/>
</g>
</svg>
