<?xml version="1.0" standalone="no"?>
<!DOCTYPE svg PUBLIC "-//W3C//DTD SVG 20010904//EN"
 "http://www.w3.org/TR/2001/REC-SVG-20010904/DTD/svg10.dtd">
<svg version="1.0" xmlns="http://www.w3.org/2000/svg"
 width="512.000000pt" height="512.000000pt" viewBox="0 0 512.000000 512.000000"
 preserveAspectRatio="xMidYMid meet">
<metadata>
Created by potrace 1.14, written by Peter Selinger 2001-2017
</metadata>
<g transform="translate(0.000000,512.000000) scale(0.100000,-0.100000)"
fill="#000000" stroke="none">
<path d="M2511 4566 c-49 -27 -50 -39 -51 -379 0 -345 2 -361 55 -385 51 -23
107 -7 131 39 19 37 21 643 2 684 -22 48 -88 68 -137 41z"/>
<path d="M1170 4013 c-51 -19 -79 -78 -60 -129 13 -33 420 -448 462 -470 44
-23 77 -17 114 20 37 37 43 70 20 114 -22 41 -437 449 -469 461 -30 12 -44 13
-67 4z"/>
<path d="M3875 4005 c-37 -20 -441 -420 -461 -457 -23 -44 -17 -77 20 -114 37
-37 70 -43 114 -20 42 22 449 437 462 470 31 83 -57 162 -135 121z"/>
<path d="M2405 3709 c-243 -31 -498 -161 -677 -347 -48 -50 -97 -106 -108
-124 -39 -64 -18 -137 44 -158 49 -16 88 3 135 64 56 73 154 164 230 215 84
57 171 96 289 129 87 24 113 27 252 26 139 -1 164 -3 244 -28 389 -118 651
-429 698 -828 34 -284 -86 -603 -298 -797 -121 -111 -275 -194 -430 -233 -127
-31 -323 -31 -449 1 -349 88 -611 347 -707 699 -17 63 -22 108 -22 244 -2 161
-2 168 -25 192 -50 53 -135 39 -162 -26 -18 -43 -18 -300 0 -383 38 -176 119
-365 206 -480 167 -221 389 -369 664 -443 85 -22 115 -25 266 -25 158 0 178 2
287 31 205 54 365 142 510 280 193 185 315 415 353 669 19 125 19 210 -1 340
-93 628 -666 1061 -1299 982z"/>
<path d="M1522 3034 c-28 -19 -52 -65 -52 -100 0 -35 59 -94 95 -94 93 0 144
122 75 183 -35 31 -83 36 -118 11z"/>
<path d="M591 2646 c-47 -26 -63 -84 -37 -135 26 -49 43 -51 382 -51 342 0
358 2 382 55 23 51 7 107 -39 131 -39 20 -652 20 -688 0z"/>
<path d="M3841 2646 c-47 -26 -63 -84 -37 -135 26 -49 43 -51 382 -51 342 0
358 2 382 55 23 51 7 107 -39 131 -39 20 -652 20 -688 0z"/>
<path d="M1565 1701 c-49 -31 -443 -434 -455 -466 -30 -78 47 -154 126 -125
33 13 448 420 470 462 23 44 17 77 -20 114 -39 39 -75 44 -121 15z"/>
<path d="M3434 1686 c-37 -37 -43 -70 -20 -114 22 -42 437 -449 470 -462 79
-29 155 47 126 125 -13 34 -420 449 -462 471 -44 23 -77 17 -114 -20z"/>
<path d="M2511 1316 c-49 -27 -50 -39 -51 -379 0 -345 2 -361 55 -385 51 -23
107 -7 131 39 19 37 21 643 2 684 -22 48 -88 68 -137 41z"/>
</g>
</svg>
