<?xml version="1.0" standalone="no"?>
<!DOCTYPE svg PUBLIC "-//W3C//DTD SVG 20010904//EN"
 "http://www.w3.org/TR/2001/REC-SVG-20010904/DTD/svg10.dtd">
<svg version="1.0" xmlns="http://www.w3.org/2000/svg"
 width="260.000000pt" height="260.000000pt" viewBox="0 0 260.000000 260.000000"
 preserveAspectRatio="xMidYMid meet">
<metadata>
Created by potrace 1.14, written by Peter Selinger 2001-2017
</metadata>
<g transform="translate(0.000000,260.000000) scale(0.100000,-0.100000)"
fill="#000000" stroke="none">
<path d="M595 2306 c-33 -8 -73 -20 -90 -27 -16 -7 -33 -12 -37 -11 -5 1 -8
-2 -8 -6 0 -5 -6 -9 -13 -9 -26 0 -126 -74 -184 -137 -62 -66 -107 -134 -118
-179 -4 -15 -10 -27 -14 -27 -4 0 -8 -6 -8 -12 -1 -7 -9 -47 -18 -88 -22 -97
-16 -250 13 -332 11 -31 17 -59 14 -62 -3 -3 0 -6 6 -6 7 0 12 -7 12 -16 0
-38 95 -156 225 -279 75 -71 156 -149 178 -171 148 -146 676 -643 694 -652 28
-15 68 -15 96 0 19 10 496 459 725 682 39 39 77 73 82 74 6 2 10 10 10 17 0 8
9 16 19 20 24 7 202 195 222 232 8 16 22 36 31 47 9 10 14 24 11 32 -3 8 0 14
6 14 6 0 10 3 9 8 -1 4 6 31 15 61 9 30 17 65 17 78 0 13 5 23 10 23 6 0 10
39 10 96 0 61 -4 93 -10 89 -6 -3 -10 4 -10 18 0 13 -8 48 -17 78 -9 30 -16
57 -15 62 1 4 -2 7 -8 7 -5 0 -10 8 -10 18 0 9 -16 42 -36 71 -33 52 -84 117
-84 109 0 -2 -22 16 -48 41 -39 37 -124 91 -152 97 -3 0 -18 6 -35 13 -96 40
-262 52 -375 26 -83 -19 -83 -19 -97 -28 -7 -5 -17 -5 -23 -2 -5 3 -10 3 -10
-2 0 -4 -24 -19 -52 -33 -65 -31 -237 -198 -221 -214 4 -3 1 -6 -5 -6 -7 0
-12 4 -12 10 0 5 -39 49 -88 97 -92 92 -146 127 -262 164 -84 27 -260 35 -345
15z"/>
</g>
</svg>
