<?xml version="1.0" standalone="no"?>
<!DOCTYPE svg PUBLIC "-//W3C//DTD SVG 20010904//EN"
 "http://www.w3.org/TR/2001/REC-SVG-20010904/DTD/svg10.dtd">
<svg version="1.0" xmlns="http://www.w3.org/2000/svg"
 width="260.000000pt" height="260.000000pt" viewBox="0 0 260.000000 260.000000"
 preserveAspectRatio="xMidYMid meet">
<metadata>
Created by potrace 1.14, written by Peter Selinger 2001-2017
</metadata>
<g transform="translate(0.000000,260.000000) scale(0.100000,-0.100000)"
fill="#000000" stroke="none">
<path d="M1165 2540 c-585 -83 -1041 -536 -1100 -1094 -7 -65 -7 -66 16 -66
17 0 20 -3 11 -9 -9 -5 -12 -28 -10 -77 l3 -69 364 -5 363 -5 18 -57 c84 -272
407 -398 664 -260 102 55 207 190 223 285 l6 37 398 0 399 0 0 80 c0 53 4 80
11 80 19 0 4 128 -26 233 -37 125 -140 334 -216 436 -189 253 -432 408 -738
471 -113 23 -299 33 -386 20z m10 -201 c5 -5 10 -53 10 -105 l1 -96 -36 -27
c-19 -14 -41 -32 -48 -38 -7 -7 -21 -13 -30 -14 -36 -1 -53 -8 -97 -38 -25
-17 -52 -31 -58 -31 -7 0 -21 -15 -31 -32 -35 -62 -152 -157 -171 -140 -5 4
-5 2 -1 -5 6 -11 -16 -30 -39 -32 -5 0 -19 -8 -29 -17 -34 -30 -78 -35 -152
-20 -59 13 -71 13 -84 1 -14 -13 -18 -12 -31 4 -14 16 -14 23 -2 67 21 70 40
111 80 171 41 63 166 189 208 210 17 9 44 26 60 38 45 34 161 84 240 104 72
18 191 18 210 0z m190 -28 c1 -34 23 -38 35 -7 8 22 16 26 57 28 94 4 96 4
193 -31 30 -11 63 -20 72 -21 9 0 18 -3 20 -7 2 -5 33 -24 70 -43 38 -19 81
-47 97 -62 17 -16 33 -28 37 -28 18 0 147 -146 169 -192 34 -70 33 -96 -4
-109 -15 -6 -33 -21 -39 -34 -7 -14 -21 -26 -32 -26 -11 -1 -32 -2 -47 -3 -16
-1 -39 -6 -52 -10 -18 -6 -22 -5 -15 5 6 10 3 10 -11 -1 -11 -9 -16 -10 -11
-2 5 8 1 12 -12 12 -17 0 -70 36 -122 84 -22 20 -61 38 -67 32 -9 -9 -34 15
-27 25 3 5 0 9 -6 9 -6 0 -37 18 -67 40 -31 22 -64 40 -74 40 -10 0 -21 5 -24
10 -3 6 -21 10 -39 10 -41 0 -79 39 -96 97 -11 36 -15 40 -27 28 -18 -19 -46
-7 -40 16 3 11 2 17 -2 15 -12 -8 -1 138 12 146 24 16 52 4 52 -21z m779 -178
c29 -39 3 -24 -34 20 -28 32 -30 37 -9 22 14 -10 33 -29 43 -42z m40 -49 c3
-8 2 -12 -4 -9 -6 3 -10 10 -10 16 0 14 7 11 14 -7z m-1783 -61 c-5 -10 -17
-27 -26 -38 -16 -19 -17 -19 -3 5 26 46 29 50 34 50 3 0 0 -8 -5 -17z m514
-74 c-10 -15 -25 -10 -19 6 4 8 10 12 15 9 5 -3 7 -10 4 -15z m465 -368 c117
-44 181 -133 188 -262 4 -66 1 -84 -20 -131 -29 -63 -81 -118 -141 -150 -61
-33 -203 -33 -265 0 -186 99 -221 337 -71 482 77 75 206 100 309 61z"/>
<path d="M1356 2217 c-8 -32 -7 -39 6 -35 13 5 19 46 7 53 -3 3 -9 -5 -13 -18z"/>
</g>
</svg>
